# xmcd
#
# Track frame offsets:
#	150
#	12964
#	23909
#	35287
#	46692
#	59894
#	77582
#	91305
#	110298
#	124603
#	136786
#	149139
#	161085
#	176467
#
# Disc length: 2574 seconds
#
# Revision: 1
# Processed by: cddbd v1.5.2PL0 Copyright (c) Steve Scherf et al.
# Submitted via: audiograbber 1.83.01
#
DISCID=b40a0c0e
DTITLE=Willie Nelson - Remember Me, Vol. 1
DYEAR=2014
DGENRE=Country
TTITLE0=Remember Me
TTITLE1=Sixteen Tons
TTITLE2=Why Baby Why
TTITLE3=Today I Started Loving You Again
TTITLE4=Movin' On
TTITLE5=That Just About Does It
TTITLE6=This Old House
TTITLE7=Sunday Mornin' Comin' Down
TTITLE8=Smoke Smoke Smoke That Cigarette
TTITLE9=Slowly
TTITLE10=Satisfied Mind
TTITLE11=Roly Poly
TTITLE12=Release Me
TTITLE13=Ramblin' Fever
EXTD=
EXTT0=
EXTT1=
EXTT2=
EXTT3=
EXTT4=
EXTT5=
EXTT6=
EXTT7=
EXTT8=
EXTT9=
EXTT10=
EXTT11=
EXTT12=
EXTT13=
PLAYORDER=
